<?xml version="1.0" encoding="UTF-8"?>
<svg fill="currentcolor" version="1.1" viewBox="0 0 512 512" xmlns="http://www.w3.org/2000/svg">
    <path d="m404.85 471.1h-309.64v-373.19l69.898-69.672h239.74v442.86zm-227.04-412.14-51.875 51.711v329.71h248.2v-381.42h-196.32z"/>
    <path d="m256.82 289.67c-2.8477 0.36719-5.7539 0.57422-8.6836 0.57422-36.332 0-65.824-29.492-65.824-65.824s29.492-65.824 65.824-65.824c34.406 0 59.453 34.527 65.988 60.273 1.8633 7.332 3.625 13.699 3.625 23.574 0 54.25-42.66 98.305-95.191 98.305-5.1211 0-10.156-0.42969-15.055-1.2305 21.195-7.7227 38.891-25.926 49.316-49.848z" fill-rule="evenodd"/>
</svg>
